<?xml version="1.0" encoding="iso-8859-1"?>
<!-- Generator: Adobe Illustrator 22.1.0, SVG Export Plug-In . SVG Version: 6.00 Build 0)  -->
<svg xmlns="http://www.w3.org/2000/svg" xmlns:xlink="http://www.w3.org/1999/xlink" version="1.1" id="Layer_1_1_" x="0px" y="0px" viewBox="0 0 64 64" style="enable-background:new 0 0 64 64;" xml:space="preserve" width="512" height="512">
<linearGradient id="SVGID_1_" gradientUnits="userSpaceOnUse" x1="32" y1="1" x2="32" y2="63" gradientTransform="matrix(1 0 0 -1 0 64)">
	<stop offset="0" style="stop-color:#9F2FFF"/>
	<stop offset="1" style="stop-color:#0BB1D3"/>
</linearGradient>
<path style="fill:url(#SVGID_1_);" d="M6,57h13v4h-4v2h34v-2h-4v-4h13c2.757,0,5-2.243,5-5V22c0-2.757-2.243-5-5-5h-7.261  C49.294,7.947,41.453,1,32,1S14.706,7.947,13.261,17H6c-2.757,0-5,2.243-5,5v30C1,54.757,3.243,57,6,57z M43,61H21v-4h22V61z M58,55  H6c-1.654,0-3-1.346-3-3v-1h58v1C61,53.654,59.654,55,58,55z M49,20c0,2.702-0.645,5.31-1.824,7.647  C46.472,27.352,46,26.678,46,25.906C46,23.752,44.248,22,42.094,22C40.939,22,40,21.061,40,19.906v-0.441  c0-1.211-0.472-2.351-1.329-3.207l-1-1C36.593,14.179,36,12.747,36,11.223c0-1.743,0.78-3.367,2.141-4.455l2.061-1.649  C45.442,8.018,49,13.599,49,20z M32,3c2.18,0,4.259,0.427,6.176,1.179l-1.284,1.027C35.054,6.676,34,8.869,34,11.223  c0,2.058,0.801,3.993,2.257,5.448l1,1C37.736,18.15,38,18.787,38,19.464v0.441C38,22.163,39.837,24,42.094,24  C43.145,24,44,24.855,44,25.906c0,1.496,0.85,2.834,2.16,3.488c-0.941,1.416-2.097,2.695-3.444,3.79l-2.171-0.723l1.158-2.315  l-3.848-3.848l-2.315,1.158L34.721,25H29.28l-0.818,2.456l-2.315-1.158l-3.848,3.848l1.158,2.315l-2.171,0.723  c-1.577-1.282-2.895-2.816-3.909-4.527C18.44,26.744,19,24.6,19,22.395v-1.728C19,19.748,19.748,19,20.667,19  c0.522,0,1.021,0.249,1.333,0.667L23,21c0.939,1.252,2.435,2,4,2c2.757,0,5-2.243,5-5v-1.333C32,14.645,30.355,13,28.333,13  c-0.522,0-1.021-0.249-1.333-0.667C25.434,10.246,22.942,9,20.333,9h-1.272C22.182,5.335,26.82,3,32,3z M39.269,41.459l-1.809,1.809  l-2.162-1.081l-0.433,0.194c-0.124,0.056-0.25,0.105-0.376,0.154l-0.444,0.168L33.279,45H30.72l-0.766-2.296l-0.444-0.168  c-0.127-0.048-0.253-0.098-0.376-0.154l-0.433-0.194l-2.162,1.081L24.73,41.46l1.081-2.162l-0.194-0.433  c-0.056-0.124-0.105-0.25-0.154-0.376l-0.168-0.444L23,37.279V34.72l2.296-0.766l0.168-0.444c0.048-0.127,0.098-0.253,0.154-0.376  l0.194-0.433l-1.081-2.162l1.809-1.809l2.162,1.081l0.433-0.194c0.124-0.056,0.25-0.105,0.376-0.154l0.444-0.168L30.721,27h2.559  l0.766,2.296l0.444,0.168c0.127,0.048,0.253,0.098,0.376,0.154l0.433,0.194l2.162-1.081l1.809,1.809l-1.081,2.162l0.194,0.433  c0.056,0.124,0.105,0.25,0.154,0.376l0.168,0.444L41,34.721v2.559l-2.296,0.766l-0.168,0.444c-0.048,0.127-0.098,0.253-0.154,0.376  l-0.194,0.433L39.269,41.459z M17.604,11h2.729c1.982,0,3.876,0.947,5.066,2.533C26.088,14.452,27.185,15,28.333,15  C29.252,15,30,15.748,30,16.667V18c0,1.654-1.346,3-3,3c-0.939,0-1.837-0.449-2.4-1.2l-1-1.333C22.912,17.548,21.815,17,20.667,17  C18.645,17,17,18.645,17,20.667v1.728c0,1.375-0.259,2.721-0.754,3.982C15.437,24.38,15,22.221,15,20  C15,16.693,15.964,13.614,17.604,11z M6,19h7.051C13.033,19.333,13,19.662,13,20c0,6.168,2.984,11.91,8,15.479v3.242l2.456,0.818  l-1.158,2.315l3.848,3.848l2.315-1.158L29.279,47h5.441l0.818-2.456l2.315,1.158l3.848-3.848l-1.158-2.315L43,38.721v-3.242  c5.016-3.569,8-9.311,8-15.479c0-0.338-0.033-0.667-0.051-1H58c1.654,0,3,1.346,3,3v27H3V22C3,20.346,4.346,19,6,19z M32,31  c-2.757,0-5,2.243-5,5s2.243,5,5,5s5-2.243,5-5S34.757,31,32,31z M32,39c-1.654,0-3-1.346-3-3s1.346-3,3-3s3,1.346,3,3  S33.654,39,32,39z M14.586,38H5v-2h9.586l-2.293-2.293l1.414-1.414L18.414,37l-4.707,4.707l-1.414-1.414L14.586,38z M50.293,41.707  L45.586,37l4.707-4.707l1.414,1.414L49.414,36H59v2h-9.586l2.293,2.293L50.293,41.707z"/>
</svg>
