<?xml version="1.0" encoding="iso-8859-1"?>
<!-- Generator: Adobe Illustrator 18.0.0, SVG Export Plug-In . SVG Version: 6.00 Build 0)  -->
<!DOCTYPE svg PUBLIC "-//W3C//DTD SVG 1.1//EN" "http://www.w3.org/Graphics/SVG/1.1/DTD/svg11.dtd">
<svg xmlns="http://www.w3.org/2000/svg" xmlns:xlink="http://www.w3.org/1999/xlink" version="1.1" id="Capa_1" x="0px" y="0px" viewBox="0 0 460.626 460.626" style="enable-background:new 0 0 460.626 460.626;" xml:space="preserve" width="512px" height="512px">
<g id="XMLID_311_">
	<path id="XMLID_858_" d="M455.398,80.254l-63.279-57.496c-6.525-5.929-16.619-5.445-22.549,1.079   c-2.915,3.208-4.271,7.28-4.13,11.296c-6.651-9.238-17.491-15.259-29.744-15.259c-13.059,0-24.514,6.838-31.002,17.123   c0.596-4.498-0.711-9.218-4.001-12.838c-5.929-6.524-16.024-7.01-22.549-1.079l-63.279,57.496c-4.129,3.751-6,9.386-4.934,14.862   c1.065,5.476,4.912,9.998,10.146,11.928l68.801,25.368l-0.188,294.968c0,11.716,9.497,21.213,21.213,21.213   s21.213-9.497,21.213-21.213V262.723c0-2.53,2.051-4.58,4.58-4.58s4.58,2.051,4.58,4.58v164.979   c0,11.716,9.497,21.213,21.213,21.213s21.213-9.497,21.213-21.213l-0.188-295.705l67.673-24.952   c5.233-1.93,9.081-6.452,10.146-11.928C461.397,89.64,459.527,84.005,455.398,80.254z M362.899,105.203   c-4.209,10.996-16.102,42.066-20.306,53.049l4.747-22.361c0.333-1.57,0.091-3.208-0.682-4.615l-6.519-11.856l5.795-10.541   c0.402-0.731,0.388-1.62-0.037-2.338c-0.425-0.718-1.197-1.158-2.031-1.158h-15.906c-0.834,0-1.606,0.44-2.031,1.158   c-0.425,0.718-0.438,1.607-0.037,2.338l5.795,10.541l-6.543,11.9c-0.759,1.38-1.007,2.984-0.7,4.528l4.151,22.404   c-3.658-9.381-16.06-42.686-19.764-52.185l-53.03-19.553l43.81-39.806c0.388-0.353,0.751-0.722,1.097-1.103   c-1.073,3.445-1.651,7.108-1.651,10.907c0,20.234,16.403,36.637,36.637,36.637s36.637-16.403,36.637-36.637   c0-3.401-0.473-6.689-1.34-9.813l43.466,39.494L362.899,105.203z" fill="#FFDA44"/>
	<circle id="XMLID_949_" cx="121.842" cy="47.352" r="35.64" fill="#FFDA44"/>
	<path id="XMLID_951_" d="M167.858,98.535h-16.676l-21.908,57.235l5.114-24.09c0.359-1.692,0.098-3.456-0.735-4.971l-7.023-12.773   l6.243-11.355c0.433-0.788,0.418-1.745-0.039-2.519c-0.458-0.773-1.289-1.248-2.188-1.248H113.51c-0.899,0-1.731,0.475-2.188,1.248   s-0.472,1.731-0.039,2.519l6.243,11.355l-7.049,12.82c-0.818,1.487-1.084,3.214-0.754,4.878l4.471,24.136L92.507,98.535   c-5.282,0-7.994-0.285-11.903,1.389l-28.796,12.334L66.03,81.76l2.972,5.844c2.545,5.003,8.664,6.998,13.669,4.453   c5.004-2.545,6.998-8.664,4.453-13.668L58.782,22.657c-2.546-5.006-8.667-6.995-13.669-4.453   c-5.004,2.545-6.997,8.664-4.453,13.668l6.719,13.212c-2.158,1.636-3.966,3.799-5.19,6.424L1.612,138.523   c-3.014,6.462-1.727,14.113,3.234,19.234c3.307,3.414,7.792,5.231,12.355,5.231c2.281,0,4.582-0.454,6.767-1.39l51.907-22.233   l0.008,288.914c0,11.397,9.239,20.636,20.636,20.636c11.397,0,20.636-9.239,20.636-20.636v-160.49c0-2.46,1.995-4.455,4.455-4.455   s4.455,1.995,4.455,4.455v160.49c0,11.397,9.239,20.636,20.636,20.636c11.397,0,20.636-9.239,20.636-20.636   c0-273.179-0.366-116.326-0.374-289.607c0-1.992,1.614-3.606,3.606-3.606c1.991,0,3.606,1.614,3.607,3.605   c0,0.171-0.005,0.347-0.015,0.528l0.32,63.51v60.625c0,9.498,7.699,17.197,17.196,17.197s17.196-7.699,17.196-17.197v-60.711   l-0.32-63.597C208.439,116.699,190.184,98.535,167.858,98.535z" fill="#FFDA44"/>
</g>
<g>
</g>
<g>
</g>
<g>
</g>
<g>
</g>
<g>
</g>
<g>
</g>
<g>
</g>
<g>
</g>
<g>
</g>
<g>
</g>
<g>
</g>
<g>
</g>
<g>
</g>
<g>
</g>
<g>
</g>
</svg>
